<mxfile host="app.diagrams.net" modified="2023-04-12T05:43:07.419Z" agent="Mozilla/5.0 (X11; Ubuntu; Linux x86_64; rv:109.0) Gecko/20100101 Firefox/111.0" etag="x4Scd1rNhAkluUGdy0Qa" version="21.1.5" type="github">
  <diagram name="Page-1" id="BmjIcGM8oCkEsc__Spi8">
    <mxGraphModel dx="1434" dy="739" grid="1" gridSize="10" guides="1" tooltips="1" connect="1" arrows="1" fold="1" page="1" pageScale="1" pageWidth="2400" pageHeight="2000" math="0" shadow="0">
      <root>
        <mxCell id="0" />
        <mxCell id="1" parent="0" />
        <mxCell id="vNjgoKGC3daDF4KBpXQI-41" style="edgeStyle=elbowEdgeStyle;rounded=0;orthogonalLoop=1;jettySize=auto;html=1;entryX=0;entryY=0.5;entryDx=0;entryDy=0;" parent="1" target="vNjgoKGC3daDF4KBpXQI-4" edge="1">
          <mxGeometry relative="1" as="geometry">
            <mxPoint x="380" y="880" as="sourcePoint" />
          </mxGeometry>
        </mxCell>
        <mxCell id="vNjgoKGC3daDF4KBpXQI-1" value="" style="rounded=0;whiteSpace=wrap;html=1;" parent="1" vertex="1">
          <mxGeometry x="283.48" y="765" width="100" height="220" as="geometry" />
        </mxCell>
        <mxCell id="vNjgoKGC3daDF4KBpXQI-29" value="" style="edgeStyle=elbowEdgeStyle;rounded=0;orthogonalLoop=1;jettySize=auto;html=1;entryX=-0.027;entryY=0.084;entryDx=0;entryDy=0;entryPerimeter=0;" parent="1" source="vNjgoKGC3daDF4KBpXQI-2" target="vNjgoKGC3daDF4KBpXQI-15" edge="1">
          <mxGeometry relative="1" as="geometry">
            <mxPoint x="420" y="560" as="targetPoint" />
            <Array as="points">
              <mxPoint x="420" y="880" />
              <mxPoint x="420" y="750" />
              <mxPoint x="410" y="880" />
              <mxPoint x="420" y="750" />
              <mxPoint x="430" y="880" />
              <mxPoint x="430" y="880" />
              <mxPoint x="420" y="820" />
              <mxPoint x="410" y="880" />
              <mxPoint x="420" y="680" />
              <mxPoint x="410" y="880" />
              <mxPoint x="420" y="560" />
            </Array>
          </mxGeometry>
        </mxCell>
        <mxCell id="vNjgoKGC3daDF4KBpXQI-2" value="&lt;font style=&quot;font-size: 36px;&quot;&gt;PC&lt;/font&gt;" style="text;strokeColor=none;align=center;fillColor=none;html=1;verticalAlign=middle;whiteSpace=wrap;rounded=0;" parent="1" vertex="1">
          <mxGeometry x="283.48" y="815" width="100" height="120" as="geometry" />
        </mxCell>
        <mxCell id="vNjgoKGC3daDF4KBpXQI-33" value="" style="edgeStyle=elbowEdgeStyle;rounded=0;orthogonalLoop=1;jettySize=auto;html=1;" parent="1" source="vNjgoKGC3daDF4KBpXQI-4" target="vNjgoKGC3daDF4KBpXQI-17" edge="1">
          <mxGeometry relative="1" as="geometry">
            <Array as="points">
              <mxPoint x="670" y="880" />
            </Array>
          </mxGeometry>
        </mxCell>
        <mxCell id="vNjgoKGC3daDF4KBpXQI-4" value="" style="rounded=0;whiteSpace=wrap;html=1;" parent="1" vertex="1">
          <mxGeometry x="443.48" y="685" width="200" height="390" as="geometry" />
        </mxCell>
        <mxCell id="vNjgoKGC3daDF4KBpXQI-9" value="&lt;font style=&quot;font-size: 24px;&quot;&gt;PC&lt;/font&gt;" style="text;strokeColor=none;align=center;fillColor=none;html=1;verticalAlign=middle;whiteSpace=wrap;rounded=0;" parent="1" vertex="1">
          <mxGeometry x="340" y="815" width="120" height="50" as="geometry" />
        </mxCell>
        <mxCell id="vNjgoKGC3daDF4KBpXQI-11" value="" style="strokeWidth=2;html=1;shape=mxgraph.flowchart.terminator;whiteSpace=wrap;rotation=-91;" parent="1" vertex="1">
          <mxGeometry x="100" y="850" width="147.33" height="60" as="geometry" />
        </mxCell>
        <mxCell id="vNjgoKGC3daDF4KBpXQI-12" value="&lt;font style=&quot;font-size: 36px;&quot;&gt;IM&lt;/font&gt;" style="text;strokeColor=none;align=center;fillColor=none;html=1;verticalAlign=middle;whiteSpace=wrap;rounded=0;" parent="1" vertex="1">
          <mxGeometry x="460" y="825.89" width="160" height="84.11" as="geometry" />
        </mxCell>
        <mxCell id="vNjgoKGC3daDF4KBpXQI-14" style="edgeStyle=orthogonalEdgeStyle;rounded=0;orthogonalLoop=1;jettySize=auto;html=1;entryX=0;entryY=0.5;entryDx=0;entryDy=0;" parent="1" target="vNjgoKGC3daDF4KBpXQI-2" edge="1">
          <mxGeometry relative="1" as="geometry">
            <mxPoint x="200" y="875" as="sourcePoint" />
          </mxGeometry>
        </mxCell>
        <mxCell id="vNjgoKGC3daDF4KBpXQI-13" value="&lt;font style=&quot;font-size: 36px;&quot;&gt;MUX&lt;/font&gt;" style="text;strokeColor=none;align=center;fillColor=none;html=1;verticalAlign=middle;whiteSpace=wrap;rounded=0;connectable=0;" parent="1" vertex="1">
          <mxGeometry x="148.84" y="860" width="51.33" height="50" as="geometry" />
        </mxCell>
        <mxCell id="vNjgoKGC3daDF4KBpXQI-87" style="edgeStyle=elbowEdgeStyle;rounded=0;orthogonalLoop=1;jettySize=auto;html=1;entryX=0;entryY=0.5;entryDx=0;entryDy=0;" parent="1" source="vNjgoKGC3daDF4KBpXQI-15" target="vNjgoKGC3daDF4KBpXQI-49" edge="1">
          <mxGeometry relative="1" as="geometry" />
        </mxCell>
        <mxCell id="vNjgoKGC3daDF4KBpXQI-15" value="" style="rounded=0;whiteSpace=wrap;html=1;" parent="1" vertex="1">
          <mxGeometry x="720" y="355" width="80" height="1050" as="geometry" />
        </mxCell>
        <mxCell id="vNjgoKGC3daDF4KBpXQI-16" value="&lt;font style=&quot;font-size: 24px;&quot;&gt;PCIF&lt;/font&gt;" style="text;strokeColor=none;align=center;fillColor=none;html=1;verticalAlign=middle;whiteSpace=wrap;rounded=0;" parent="1" vertex="1">
          <mxGeometry x="180" y="825.89" width="120" height="40" as="geometry" />
        </mxCell>
        <mxCell id="vNjgoKGC3daDF4KBpXQI-17" value="&lt;font style=&quot;font-size: 36px;&quot;&gt;IF/ID&lt;br&gt;&lt;/font&gt;" style="text;strokeColor=none;align=center;fillColor=none;html=1;verticalAlign=middle;whiteSpace=wrap;rounded=0;" parent="1" vertex="1">
          <mxGeometry x="720" y="840" width="80" height="80" as="geometry" />
        </mxCell>
        <mxCell id="vNjgoKGC3daDF4KBpXQI-42" value="" style="rounded=0;whiteSpace=wrap;html=1;" parent="1" vertex="1">
          <mxGeometry x="1100" y="685" width="340" height="485" as="geometry" />
        </mxCell>
        <mxCell id="vNjgoKGC3daDF4KBpXQI-43" value="&lt;font style=&quot;font-size: 36px;&quot;&gt;Registers&lt;/font&gt;" style="text;strokeColor=none;align=center;fillColor=none;html=1;verticalAlign=middle;whiteSpace=wrap;rounded=0;" parent="1" vertex="1">
          <mxGeometry x="1150" y="842.5" width="260" height="170" as="geometry" />
        </mxCell>
        <mxCell id="vNjgoKGC3daDF4KBpXQI-48" value="&lt;font style=&quot;font-size: 24px;&quot;&gt;ReadReg1&lt;/font&gt;" style="text;strokeColor=none;align=center;fillColor=none;html=1;verticalAlign=middle;whiteSpace=wrap;rounded=0;" parent="1" vertex="1">
          <mxGeometry x="1100" y="710" width="120" height="60" as="geometry" />
        </mxCell>
        <mxCell id="vNjgoKGC3daDF4KBpXQI-49" value="&lt;font style=&quot;font-size: 24px;&quot;&gt;ReadReg2&lt;/font&gt;" style="text;strokeColor=none;align=center;fillColor=none;html=1;verticalAlign=middle;whiteSpace=wrap;rounded=0;" parent="1" vertex="1">
          <mxGeometry x="1100" y="800" width="120" height="60" as="geometry" />
        </mxCell>
        <mxCell id="vNjgoKGC3daDF4KBpXQI-51" value="&lt;font style=&quot;font-size: 24px;&quot;&gt;INSTRUCID[19:15]&lt;/font&gt;" style="text;strokeColor=none;align=center;fillColor=none;html=1;verticalAlign=middle;whiteSpace=wrap;rounded=0;connectable=0;" parent="1" vertex="1">
          <mxGeometry x="820" y="685" width="160" height="60" as="geometry" />
        </mxCell>
        <mxCell id="vNjgoKGC3daDF4KBpXQI-53" value="&lt;font style=&quot;font-size: 24px;&quot;&gt;INSTRUCID[24:20]&lt;/font&gt;" style="text;strokeColor=none;align=center;fillColor=none;html=1;verticalAlign=middle;whiteSpace=wrap;rounded=0;backgroundOutline=0;imageAspect=1;noLabel=0;allowArrows=1;connectable=0;" parent="1" vertex="1">
          <mxGeometry x="810" y="892.5" width="180" height="70" as="geometry" />
        </mxCell>
        <mxCell id="vNjgoKGC3daDF4KBpXQI-57" value="&lt;font style=&quot;font-size: 24px;&quot;&gt;WriteReg&lt;/font&gt;" style="text;strokeColor=none;align=center;fillColor=none;html=1;verticalAlign=middle;whiteSpace=wrap;rounded=0;" parent="1" vertex="1">
          <mxGeometry x="1113.17" y="962.5" width="120" height="60" as="geometry" />
        </mxCell>
        <mxCell id="vNjgoKGC3daDF4KBpXQI-58" value="&lt;font style=&quot;font-size: 24px;&quot;&gt;WriteData&lt;/font&gt;" style="text;strokeColor=none;align=center;fillColor=none;html=1;verticalAlign=middle;whiteSpace=wrap;rounded=0;" parent="1" vertex="1">
          <mxGeometry x="1110" y="1040" width="120" height="50" as="geometry" />
        </mxCell>
        <mxCell id="vNjgoKGC3daDF4KBpXQI-59" value="" style="ellipse;whiteSpace=wrap;html=1;" parent="1" vertex="1">
          <mxGeometry x="1250" y="1180" width="120" height="200" as="geometry" />
        </mxCell>
        <mxCell id="vNjgoKGC3daDF4KBpXQI-64" value="&lt;div&gt;&lt;font style=&quot;font-size: 36px;&quot;&gt;ImmGen&lt;/font&gt;&lt;/div&gt;" style="text;strokeColor=none;align=center;fillColor=none;html=1;verticalAlign=middle;whiteSpace=wrap;rounded=0;" parent="1" vertex="1">
          <mxGeometry x="1263.66" y="1245" width="100" height="70" as="geometry" />
        </mxCell>
        <mxCell id="vNjgoKGC3daDF4KBpXQI-65" value="" style="strokeWidth=2;html=1;shape=mxgraph.flowchart.terminator;whiteSpace=wrap;rotation=-180;" parent="1" vertex="1">
          <mxGeometry x="1150" y="440" width="237.33" height="160" as="geometry" />
        </mxCell>
        <mxCell id="vNjgoKGC3daDF4KBpXQI-66" value="&lt;font style=&quot;font-size: 36px;&quot;&gt;Hazard&lt;br&gt;&lt;/font&gt;" style="text;strokeColor=none;align=center;fillColor=none;html=1;verticalAlign=middle;whiteSpace=wrap;rounded=0;connectable=0;" parent="1" vertex="1">
          <mxGeometry x="1178.66" y="450" width="180" height="120" as="geometry" />
        </mxCell>
        <mxCell id="vNjgoKGC3daDF4KBpXQI-93" value="" style="shape=waypoint;sketch=0;fillStyle=solid;size=6;pointerEvents=1;points=[];fillColor=none;resizable=0;rotatable=0;perimeter=centerPerimeter;snapToPoint=1;" parent="1" vertex="1">
          <mxGeometry x="560" y="950" width="20" height="20" as="geometry" />
        </mxCell>
        <mxCell id="vNjgoKGC3daDF4KBpXQI-95" value="" style="shape=waypoint;sketch=0;fillStyle=solid;size=6;pointerEvents=1;points=[];fillColor=none;resizable=0;rotatable=0;perimeter=centerPerimeter;snapToPoint=1;" parent="1" vertex="1">
          <mxGeometry x="1230" y="1030" width="20" height="20" as="geometry" />
        </mxCell>
        <mxCell id="vNjgoKGC3daDF4KBpXQI-101" value="" style="endArrow=classic;html=1;rounded=0;exitX=1.021;exitY=0.365;exitDx=0;exitDy=0;exitPerimeter=0;entryX=0;entryY=0.5;entryDx=0;entryDy=0;" parent="1" source="vNjgoKGC3daDF4KBpXQI-15" target="vNjgoKGC3daDF4KBpXQI-48" edge="1">
          <mxGeometry width="50" height="50" relative="1" as="geometry">
            <mxPoint x="640" y="660" as="sourcePoint" />
            <mxPoint x="690" y="610" as="targetPoint" />
          </mxGeometry>
        </mxCell>
        <mxCell id="vNjgoKGC3daDF4KBpXQI-102" value="" style="endArrow=classic;html=1;rounded=0;entryX=-0.028;entryY=0.557;entryDx=0;entryDy=0;entryPerimeter=0;jumpStyle=arc;jumpSize=36;" parent="1" target="vNjgoKGC3daDF4KBpXQI-59" edge="1">
          <mxGeometry width="50" height="50" relative="1" as="geometry">
            <mxPoint x="800" y="1100" as="sourcePoint" />
            <mxPoint x="850" y="1040" as="targetPoint" />
            <Array as="points">
              <mxPoint x="960" y="1100" />
              <mxPoint x="960" y="1290" />
            </Array>
          </mxGeometry>
        </mxCell>
        <mxCell id="vNjgoKGC3daDF4KBpXQI-103" value="" style="endArrow=classic;html=1;rounded=0;jumpStyle=arc;jumpSize=36;entryX=0.966;entryY=0.275;entryDx=0;entryDy=0;entryPerimeter=0;" parent="1" target="vNjgoKGC3daDF4KBpXQI-65" edge="1">
          <mxGeometry width="50" height="50" relative="1" as="geometry">
            <mxPoint x="1040" y="830" as="sourcePoint" />
            <mxPoint x="1150" y="558" as="targetPoint" />
            <Array as="points">
              <mxPoint x="1040" y="558" />
            </Array>
          </mxGeometry>
        </mxCell>
        <mxCell id="vNjgoKGC3daDF4KBpXQI-104" value="" style="endArrow=classic;html=1;rounded=0;" parent="1" target="vNjgoKGC3daDF4KBpXQI-65" edge="1">
          <mxGeometry width="50" height="50" relative="1" as="geometry">
            <mxPoint x="1000" y="740" as="sourcePoint" />
            <mxPoint x="1140" y="520" as="targetPoint" />
            <Array as="points">
              <mxPoint x="1000" y="520" />
              <mxPoint x="1080" y="520" />
              <mxPoint x="1120" y="520" />
            </Array>
          </mxGeometry>
        </mxCell>
        <mxCell id="vNjgoKGC3daDF4KBpXQI-105" value="" style="rounded=0;whiteSpace=wrap;html=1;" parent="1" vertex="1">
          <mxGeometry x="1730" y="370" width="80" height="1050" as="geometry" />
        </mxCell>
        <mxCell id="vNjgoKGC3daDF4KBpXQI-106" value="&lt;font style=&quot;font-size: 36px;&quot;&gt;ID/EX&lt;/font&gt;" style="text;strokeColor=none;align=center;fillColor=none;html=1;verticalAlign=middle;whiteSpace=wrap;rounded=0;" parent="1" vertex="1">
          <mxGeometry x="1740" y="860" width="60" height="59.11" as="geometry" />
        </mxCell>
        <mxCell id="vNjgoKGC3daDF4KBpXQI-108" value="" style="endArrow=classic;html=1;rounded=0;entryX=0;entryY=0.75;entryDx=0;entryDy=0;" parent="1" target="vNjgoKGC3daDF4KBpXQI-105" edge="1">
          <mxGeometry width="50" height="50" relative="1" as="geometry">
            <mxPoint x="1370" y="1290" as="sourcePoint" />
            <mxPoint x="1630" y="1160" as="targetPoint" />
            <Array as="points">
              <mxPoint x="1560" y="1290" />
              <mxPoint x="1560" y="1160" />
            </Array>
          </mxGeometry>
        </mxCell>
        <mxCell id="vNjgoKGC3daDF4KBpXQI-109" value="&lt;font style=&quot;font-size: 24px;&quot;&gt;INSCTRUCTID&lt;/font&gt;" style="text;strokeColor=none;align=center;fillColor=none;html=1;verticalAlign=middle;whiteSpace=wrap;rounded=0;" parent="1" vertex="1">
          <mxGeometry x="1070" y="1300" width="60" height="60" as="geometry" />
        </mxCell>
        <mxCell id="vNjgoKGC3daDF4KBpXQI-111" value="&lt;font style=&quot;font-size: 24px;&quot;&gt;IMMID&lt;br&gt;&lt;/font&gt;" style="text;strokeColor=none;align=center;fillColor=none;html=1;verticalAlign=middle;whiteSpace=wrap;rounded=0;" parent="1" vertex="1">
          <mxGeometry x="1450" y="1290" width="60" height="60" as="geometry" />
        </mxCell>
        <mxCell id="vNjgoKGC3daDF4KBpXQI-112" value="&lt;font style=&quot;font-size: 24px;&quot;&gt;ReadData1&lt;/font&gt;" style="text;strokeColor=none;align=center;fillColor=none;html=1;verticalAlign=middle;whiteSpace=wrap;rounded=0;" parent="1" vertex="1">
          <mxGeometry x="1320" y="710" width="120" height="60" as="geometry" />
        </mxCell>
        <mxCell id="vNjgoKGC3daDF4KBpXQI-113" value="&lt;font style=&quot;font-size: 24px;&quot;&gt;ReadData2&lt;/font&gt;" style="text;strokeColor=none;align=center;fillColor=none;html=1;verticalAlign=middle;whiteSpace=wrap;rounded=0;" parent="1" vertex="1">
          <mxGeometry x="1320" y="805.89" width="120" height="60" as="geometry" />
        </mxCell>
        <mxCell id="vNjgoKGC3daDF4KBpXQI-115" value="" style="endArrow=classic;html=1;rounded=0;entryX=0.025;entryY=0.352;entryDx=0;entryDy=0;entryPerimeter=0;exitX=1;exitY=0.5;exitDx=0;exitDy=0;" parent="1" source="vNjgoKGC3daDF4KBpXQI-112" target="vNjgoKGC3daDF4KBpXQI-105" edge="1">
          <mxGeometry width="50" height="50" relative="1" as="geometry">
            <mxPoint x="1440" y="730" as="sourcePoint" />
            <mxPoint x="1500" y="690" as="targetPoint" />
          </mxGeometry>
        </mxCell>
        <mxCell id="vNjgoKGC3daDF4KBpXQI-116" value="" style="endArrow=classic;html=1;rounded=0;exitX=1;exitY=0.5;exitDx=0;exitDy=0;" parent="1" edge="1">
          <mxGeometry width="50" height="50" relative="1" as="geometry">
            <mxPoint x="1438" y="838" as="sourcePoint" />
            <mxPoint x="1730" y="838" as="targetPoint" />
          </mxGeometry>
        </mxCell>
        <mxCell id="vNjgoKGC3daDF4KBpXQI-119" value="" style="endArrow=none;html=1;rounded=0;strokeWidth=2;" parent="1" edge="1">
          <mxGeometry width="50" height="50" relative="1" as="geometry">
            <mxPoint x="1159" y="200" as="sourcePoint" />
            <mxPoint x="1159" y="120" as="targetPoint" />
          </mxGeometry>
        </mxCell>
        <mxCell id="vNjgoKGC3daDF4KBpXQI-120" value="" style="endArrow=none;html=1;rounded=0;strokeWidth=2;" parent="1" edge="1">
          <mxGeometry width="50" height="50" relative="1" as="geometry">
            <mxPoint x="1160" y="240" as="sourcePoint" />
            <mxPoint x="1160" y="200" as="targetPoint" />
            <Array as="points">
              <mxPoint x="1210" y="220" />
            </Array>
          </mxGeometry>
        </mxCell>
        <mxCell id="vNjgoKGC3daDF4KBpXQI-124" value="" style="endArrow=none;html=1;rounded=0;strokeWidth=2;" parent="1" edge="1">
          <mxGeometry width="50" height="50" relative="1" as="geometry">
            <mxPoint x="1160" y="320" as="sourcePoint" />
            <mxPoint x="1160" y="240" as="targetPoint" />
          </mxGeometry>
        </mxCell>
        <mxCell id="vNjgoKGC3daDF4KBpXQI-126" value="" style="endArrow=none;html=1;rounded=0;strokeWidth=2;" parent="1" edge="1">
          <mxGeometry width="50" height="50" relative="1" as="geometry">
            <mxPoint x="1160" y="320" as="sourcePoint" />
            <mxPoint x="1280" y="260" as="targetPoint" />
          </mxGeometry>
        </mxCell>
        <mxCell id="vNjgoKGC3daDF4KBpXQI-130" value="" style="endArrow=none;html=1;rounded=0;strokeWidth=2;" parent="1" edge="1">
          <mxGeometry width="50" height="50" relative="1" as="geometry">
            <mxPoint x="1280" y="260" as="sourcePoint" />
            <mxPoint x="1280" y="180" as="targetPoint" />
          </mxGeometry>
        </mxCell>
        <mxCell id="vNjgoKGC3daDF4KBpXQI-133" value="" style="endArrow=none;html=1;rounded=0;strokeWidth=2;" parent="1" edge="1">
          <mxGeometry width="50" height="50" relative="1" as="geometry">
            <mxPoint x="1160" y="120" as="sourcePoint" />
            <mxPoint x="1280" y="180" as="targetPoint" />
          </mxGeometry>
        </mxCell>
        <mxCell id="vNjgoKGC3daDF4KBpXQI-134" value="" style="endArrow=none;html=1;rounded=0;strokeWidth=2;" parent="1" edge="1">
          <mxGeometry width="50" height="50" relative="1" as="geometry">
            <mxPoint x="2220" y="830" as="sourcePoint" />
            <mxPoint x="2220" y="750" as="targetPoint" />
          </mxGeometry>
        </mxCell>
        <mxCell id="vNjgoKGC3daDF4KBpXQI-135" value="" style="endArrow=none;html=1;rounded=0;strokeWidth=2;" parent="1" edge="1">
          <mxGeometry width="50" height="50" relative="1" as="geometry">
            <mxPoint x="2221" y="870" as="sourcePoint" />
            <mxPoint x="2221" y="830" as="targetPoint" />
            <Array as="points">
              <mxPoint x="2271" y="850" />
            </Array>
          </mxGeometry>
        </mxCell>
        <mxCell id="vNjgoKGC3daDF4KBpXQI-136" value="" style="endArrow=none;html=1;rounded=0;strokeWidth=2;" parent="1" edge="1">
          <mxGeometry width="50" height="50" relative="1" as="geometry">
            <mxPoint x="2221" y="950" as="sourcePoint" />
            <mxPoint x="2221" y="870" as="targetPoint" />
          </mxGeometry>
        </mxCell>
        <mxCell id="vNjgoKGC3daDF4KBpXQI-137" value="" style="endArrow=none;html=1;rounded=0;strokeWidth=2;" parent="1" edge="1">
          <mxGeometry width="50" height="50" relative="1" as="geometry">
            <mxPoint x="2221" y="950" as="sourcePoint" />
            <mxPoint x="2341" y="890" as="targetPoint" />
          </mxGeometry>
        </mxCell>
        <mxCell id="vNjgoKGC3daDF4KBpXQI-138" value="" style="endArrow=none;html=1;rounded=0;strokeWidth=2;" parent="1" edge="1">
          <mxGeometry width="50" height="50" relative="1" as="geometry">
            <mxPoint x="2341" y="890" as="sourcePoint" />
            <mxPoint x="2341" y="810" as="targetPoint" />
          </mxGeometry>
        </mxCell>
        <mxCell id="vNjgoKGC3daDF4KBpXQI-139" value="" style="endArrow=none;html=1;rounded=0;strokeWidth=2;" parent="1" edge="1">
          <mxGeometry width="50" height="50" relative="1" as="geometry">
            <mxPoint x="2221" y="750" as="sourcePoint" />
            <mxPoint x="2341" y="810" as="targetPoint" />
          </mxGeometry>
        </mxCell>
        <mxCell id="vNjgoKGC3daDF4KBpXQI-141" value="" style="endArrow=classic;html=1;rounded=0;jumpStyle=arc;jumpSize=36;" parent="1" edge="1">
          <mxGeometry width="50" height="50" relative="1" as="geometry">
            <mxPoint x="1560" y="1160" as="sourcePoint" />
            <mxPoint x="1160" y="280" as="targetPoint" />
            <Array as="points">
              <mxPoint x="1550" y="390" />
              <mxPoint x="1120" y="390" />
              <mxPoint x="1120" y="280" />
            </Array>
          </mxGeometry>
        </mxCell>
        <mxCell id="vNjgoKGC3daDF4KBpXQI-142" value="" style="endArrow=classic;html=1;rounded=0;" parent="1" edge="1">
          <mxGeometry width="50" height="50" relative="1" as="geometry">
            <mxPoint x="800" y="450" as="sourcePoint" />
            <mxPoint x="1160" y="160" as="targetPoint" />
            <Array as="points">
              <mxPoint x="860" y="450" />
              <mxPoint x="860" y="160" />
            </Array>
          </mxGeometry>
        </mxCell>
        <mxCell id="vNjgoKGC3daDF4KBpXQI-143" value="&lt;font style=&quot;font-size: 36px;&quot;&gt;Adder&lt;/font&gt;" style="text;strokeColor=none;align=center;fillColor=none;html=1;verticalAlign=middle;whiteSpace=wrap;rounded=0;" parent="1" vertex="1">
          <mxGeometry x="1210" y="210" width="60" height="30" as="geometry" />
        </mxCell>
        <mxCell id="vNjgoKGC3daDF4KBpXQI-145" value="" style="endArrow=classic;html=1;rounded=0;entryX=0.191;entryY=0.059;entryDx=0;entryDy=0;entryPerimeter=0;" parent="1" target="vNjgoKGC3daDF4KBpXQI-11" edge="1">
          <mxGeometry width="50" height="50" relative="1" as="geometry">
            <mxPoint x="1280" y="235" as="sourcePoint" />
            <mxPoint x="150" y="935" as="targetPoint" />
            <Array as="points">
              <mxPoint x="1320" y="235" />
              <mxPoint x="1320" y="95" />
              <mxPoint x="80" y="95" />
              <mxPoint x="80" y="925" />
            </Array>
          </mxGeometry>
        </mxCell>
        <mxCell id="vNjgoKGC3daDF4KBpXQI-146" value="" style="endArrow=none;html=1;rounded=0;strokeWidth=2;" parent="1" edge="1">
          <mxGeometry width="50" height="50" relative="1" as="geometry">
            <mxPoint x="490" y="260" as="sourcePoint" />
            <mxPoint x="490" y="180" as="targetPoint" />
          </mxGeometry>
        </mxCell>
        <mxCell id="vNjgoKGC3daDF4KBpXQI-147" value="" style="endArrow=none;html=1;rounded=0;strokeWidth=2;" parent="1" edge="1">
          <mxGeometry width="50" height="50" relative="1" as="geometry">
            <mxPoint x="491" y="300" as="sourcePoint" />
            <mxPoint x="491" y="260" as="targetPoint" />
            <Array as="points">
              <mxPoint x="541" y="280" />
            </Array>
          </mxGeometry>
        </mxCell>
        <mxCell id="vNjgoKGC3daDF4KBpXQI-148" value="" style="endArrow=none;html=1;rounded=0;strokeWidth=2;" parent="1" edge="1">
          <mxGeometry width="50" height="50" relative="1" as="geometry">
            <mxPoint x="491" y="380" as="sourcePoint" />
            <mxPoint x="491" y="300" as="targetPoint" />
          </mxGeometry>
        </mxCell>
        <mxCell id="vNjgoKGC3daDF4KBpXQI-149" value="" style="endArrow=none;html=1;rounded=0;strokeWidth=2;" parent="1" edge="1">
          <mxGeometry width="50" height="50" relative="1" as="geometry">
            <mxPoint x="491" y="380" as="sourcePoint" />
            <mxPoint x="611" y="320" as="targetPoint" />
          </mxGeometry>
        </mxCell>
        <mxCell id="vNjgoKGC3daDF4KBpXQI-150" value="" style="endArrow=none;html=1;rounded=0;strokeWidth=2;" parent="1" edge="1">
          <mxGeometry width="50" height="50" relative="1" as="geometry">
            <mxPoint x="611" y="320" as="sourcePoint" />
            <mxPoint x="611" y="240" as="targetPoint" />
          </mxGeometry>
        </mxCell>
        <mxCell id="vNjgoKGC3daDF4KBpXQI-151" value="" style="endArrow=none;html=1;rounded=0;strokeWidth=2;" parent="1" edge="1">
          <mxGeometry width="50" height="50" relative="1" as="geometry">
            <mxPoint x="491" y="180" as="sourcePoint" />
            <mxPoint x="611" y="240" as="targetPoint" />
          </mxGeometry>
        </mxCell>
        <mxCell id="vNjgoKGC3daDF4KBpXQI-152" value="&lt;font style=&quot;font-size: 36px;&quot;&gt;Adder&lt;/font&gt;" style="text;strokeColor=none;align=center;fillColor=none;html=1;verticalAlign=middle;whiteSpace=wrap;rounded=0;connectable=0;" parent="1" vertex="1">
          <mxGeometry x="541" y="270" width="60" height="30" as="geometry" />
        </mxCell>
        <mxCell id="vNjgoKGC3daDF4KBpXQI-153" value="" style="endArrow=classic;html=1;rounded=0;" parent="1" edge="1">
          <mxGeometry width="50" height="50" relative="1" as="geometry">
            <mxPoint x="420" y="440" as="sourcePoint" />
            <mxPoint x="490" y="340" as="targetPoint" />
            <Array as="points">
              <mxPoint x="420" y="340" />
            </Array>
          </mxGeometry>
        </mxCell>
        <mxCell id="vNjgoKGC3daDF4KBpXQI-154" value="" style="endArrow=classic;html=1;rounded=0;" parent="1" edge="1">
          <mxGeometry width="50" height="50" relative="1" as="geometry">
            <mxPoint x="420" y="220" as="sourcePoint" />
            <mxPoint x="490" y="220" as="targetPoint" />
          </mxGeometry>
        </mxCell>
        <mxCell id="vNjgoKGC3daDF4KBpXQI-155" value="&lt;font style=&quot;font-size: 36px;&quot;&gt;4&lt;/font&gt;" style="text;strokeColor=none;align=center;fillColor=none;html=1;verticalAlign=middle;whiteSpace=wrap;rounded=0;" parent="1" vertex="1">
          <mxGeometry x="350" y="200" width="60" height="30" as="geometry" />
        </mxCell>
        <mxCell id="vNjgoKGC3daDF4KBpXQI-156" value="" style="endArrow=classic;html=1;rounded=0;" parent="1" edge="1">
          <mxGeometry width="50" height="50" relative="1" as="geometry">
            <mxPoint x="620" y="290" as="sourcePoint" />
            <mxPoint x="140" y="850" as="targetPoint" />
            <Array as="points">
              <mxPoint x="680" y="290" />
              <mxPoint x="680" y="130" />
              <mxPoint x="110" y="130" />
              <mxPoint x="110" y="850" />
            </Array>
          </mxGeometry>
        </mxCell>
        <mxCell id="vNjgoKGC3daDF4KBpXQI-158" value="&lt;font style=&quot;font-size: 24px;&quot;&gt;PCID&lt;/font&gt;" style="text;strokeColor=none;align=center;fillColor=none;html=1;verticalAlign=middle;whiteSpace=wrap;rounded=0;" parent="1" vertex="1">
          <mxGeometry x="140.16999999999996" y="630" width="60" height="30" as="geometry" />
        </mxCell>
        <mxCell id="vNjgoKGC3daDF4KBpXQI-159" value="&lt;font style=&quot;font-size: 24px;&quot;&gt;PCIF&lt;/font&gt;" style="text;strokeColor=none;align=center;fillColor=none;html=1;verticalAlign=middle;whiteSpace=wrap;rounded=0;" parent="1" vertex="1">
          <mxGeometry x="10" y="610" width="60" height="40" as="geometry" />
        </mxCell>
        <mxCell id="vNjgoKGC3daDF4KBpXQI-160" value="&lt;font style=&quot;font-size: 24px;&quot;&gt;IMMID(shift left 1 bit)&lt;/font&gt;" style="text;strokeColor=none;align=center;fillColor=none;html=1;verticalAlign=middle;whiteSpace=wrap;rounded=0;" parent="1" vertex="1">
          <mxGeometry x="1220" y="375" width="306.33" height="30" as="geometry" />
        </mxCell>
        <mxCell id="vNjgoKGC3daDF4KBpXQI-162" value="" style="ellipse;whiteSpace=wrap;html=1;" parent="1" vertex="1">
          <mxGeometry x="930" y="230" width="120" height="260" as="geometry" />
        </mxCell>
        <mxCell id="vNjgoKGC3daDF4KBpXQI-163" value="" style="endArrow=classic;html=1;rounded=0;entryX=0;entryY=0.5;entryDx=0;entryDy=0;" parent="1" target="vNjgoKGC3daDF4KBpXQI-162" edge="1">
          <mxGeometry width="50" height="50" relative="1" as="geometry">
            <mxPoint x="800" y="620" as="sourcePoint" />
            <mxPoint x="860" y="560" as="targetPoint" />
            <Array as="points">
              <mxPoint x="890" y="620" />
              <mxPoint x="890" y="360" />
            </Array>
          </mxGeometry>
        </mxCell>
        <mxCell id="vNjgoKGC3daDF4KBpXQI-164" value="&lt;font style=&quot;font-size: 24px;&quot;&gt;INSTRUCID[6:0]&lt;/font&gt;" style="text;whiteSpace=wrap;html=1;connectable=0;" parent="1" vertex="1">
          <mxGeometry x="800" y="620" width="180" height="50" as="geometry" />
        </mxCell>
        <mxCell id="vNjgoKGC3daDF4KBpXQI-166" value="&lt;font style=&quot;font-size: 36px;&quot;&gt;Control&lt;br&gt;&lt;/font&gt;" style="text;strokeColor=none;align=center;fillColor=none;html=1;verticalAlign=middle;whiteSpace=wrap;rounded=0;" parent="1" vertex="1">
          <mxGeometry x="960" y="345" width="60" height="30" as="geometry" />
        </mxCell>
        <mxCell id="vNjgoKGC3daDF4KBpXQI-167" value="" style="endArrow=classic;html=1;rounded=0;exitX=1;exitY=0.5;exitDx=0;exitDy=0;jumpStyle=arc;jumpSize=36;entryX=0;entryY=0.19;entryDx=0;entryDy=0;entryPerimeter=0;" parent="1" source="vNjgoKGC3daDF4KBpXQI-162" target="vNjgoKGC3daDF4KBpXQI-105" edge="1">
          <mxGeometry width="50" height="50" relative="1" as="geometry">
            <mxPoint x="1070" y="360" as="sourcePoint" />
            <mxPoint x="1640" y="570" as="targetPoint" />
            <Array as="points">
              <mxPoint x="1600" y="360" />
              <mxPoint x="1600" y="570" />
            </Array>
          </mxGeometry>
        </mxCell>
        <mxCell id="vNjgoKGC3daDF4KBpXQI-168" value="&lt;font style=&quot;font-size: 24px;&quot;&gt;ALUSRCID, MEMTOREGID, REGWRITEID, MEMREADID, MEMWRITEID,&amp;nbsp; ALUOP1ID, ALUOP2ID, ALUOP3ID&lt;br&gt;&lt;/font&gt;" style="text;strokeColor=none;align=center;fillColor=none;html=1;verticalAlign=middle;whiteSpace=wrap;rounded=0;" parent="1" vertex="1">
          <mxGeometry x="1190" y="290" width="590" height="50" as="geometry" />
        </mxCell>
        <mxCell id="vNjgoKGC3daDF4KBpXQI-169" value="" style="endArrow=classic;html=1;rounded=0;entryX=0.5;entryY=0;entryDx=0;entryDy=0;jumpSize=36;jumpStyle=arc;" parent="1" target="vNjgoKGC3daDF4KBpXQI-15" edge="1">
          <mxGeometry width="50" height="50" relative="1" as="geometry">
            <mxPoint x="1390" y="520" as="sourcePoint" />
            <mxPoint x="840" y="510" as="targetPoint" />
            <Array as="points">
              <mxPoint x="1450" y="520" />
              <mxPoint x="1450" y="430" />
              <mxPoint x="1080" y="430" />
              <mxPoint x="1080" y="460" />
              <mxPoint x="1080" y="510" />
              <mxPoint x="820" y="510" />
              <mxPoint x="820" y="110" />
              <mxPoint x="760" y="110" />
            </Array>
          </mxGeometry>
        </mxCell>
        <mxCell id="vNjgoKGC3daDF4KBpXQI-170" value="" style="endArrow=classic;html=1;rounded=0;entryX=0.5;entryY=1;entryDx=0;entryDy=0;" parent="1" target="vNjgoKGC3daDF4KBpXQI-162" edge="1">
          <mxGeometry width="50" height="50" relative="1" as="geometry">
            <mxPoint x="1000" y="510" as="sourcePoint" />
            <mxPoint x="1050" y="460" as="targetPoint" />
            <Array as="points">
              <mxPoint x="990" y="510" />
            </Array>
          </mxGeometry>
        </mxCell>
        <mxCell id="vNjgoKGC3daDF4KBpXQI-172" value="" style="endArrow=classic;html=1;rounded=0;entryX=0.5;entryY=0;entryDx=0;entryDy=0;jumpStyle=arc;jumpSize=36;" parent="1" target="vNjgoKGC3daDF4KBpXQI-1" edge="1">
          <mxGeometry width="50" height="50" relative="1" as="geometry">
            <mxPoint x="760" y="300" as="sourcePoint" />
            <mxPoint x="280" y="160" as="targetPoint" />
            <Array as="points">
              <mxPoint x="760" y="210" />
              <mxPoint x="760" y="110" />
              <mxPoint x="333" y="110" />
            </Array>
          </mxGeometry>
        </mxCell>
        <mxCell id="vNjgoKGC3daDF4KBpXQI-173" value="&lt;font style=&quot;font-size: 24px;&quot;&gt;stall&lt;br&gt;&lt;/font&gt;" style="text;strokeColor=none;align=center;fillColor=none;html=1;verticalAlign=middle;whiteSpace=wrap;rounded=0;" parent="1" vertex="1">
          <mxGeometry x="1400" y="540" width="60" height="30" as="geometry" />
        </mxCell>
        <mxCell id="vNjgoKGC3daDF4KBpXQI-174" value="" style="ellipse;whiteSpace=wrap;html=1;" parent="1" vertex="1">
          <mxGeometry x="1220" y="1425" width="80" height="230" as="geometry" />
        </mxCell>
        <mxCell id="vNjgoKGC3daDF4KBpXQI-175" value="" style="strokeWidth=2;html=1;shape=mxgraph.flowchart.terminator;whiteSpace=wrap;rotation=-91;" parent="1" vertex="1">
          <mxGeometry x="1340" y="1425" width="147.33" height="60" as="geometry" />
        </mxCell>
        <mxCell id="vNjgoKGC3daDF4KBpXQI-176" value="" style="strokeWidth=2;html=1;shape=mxgraph.flowchart.terminator;whiteSpace=wrap;rotation=-91;" parent="1" vertex="1">
          <mxGeometry x="1340" y="1615" width="147.33" height="60" as="geometry" />
        </mxCell>
        <mxCell id="vNjgoKGC3daDF4KBpXQI-177" value="&lt;font style=&quot;font-size: 36px;&quot;&gt;MUX&lt;/font&gt;" style="text;strokeColor=none;align=center;fillColor=none;html=1;verticalAlign=middle;whiteSpace=wrap;rounded=0;connectable=0;allowArrows=0;" parent="1" vertex="1">
          <mxGeometry x="1398.67" y="1440" width="51.33" height="60" as="geometry" />
        </mxCell>
        <mxCell id="vNjgoKGC3daDF4KBpXQI-178" value="&lt;font style=&quot;font-size: 36px;&quot;&gt;MUX&lt;/font&gt;" style="text;strokeColor=none;align=center;fillColor=none;html=1;verticalAlign=middle;whiteSpace=wrap;rounded=0;connectable=0;" parent="1" vertex="1">
          <mxGeometry x="1387.33" y="1605" width="51.33" height="50" as="geometry" />
        </mxCell>
        <mxCell id="vNjgoKGC3daDF4KBpXQI-179" value="&lt;font style=&quot;font-size: 36px;&quot;&gt;Comparator&lt;/font&gt;" style="text;strokeColor=none;align=center;fillColor=none;html=1;verticalAlign=middle;whiteSpace=wrap;rounded=0;" parent="1" vertex="1">
          <mxGeometry x="1230" y="1520" width="40" height="30" as="geometry" />
        </mxCell>
        <mxCell id="vNjgoKGC3daDF4KBpXQI-180" value="" style="endArrow=classic;html=1;rounded=0;entryX=0.89;entryY=0.89;entryDx=0;entryDy=0;entryPerimeter=0;jumpStyle=arc;jumpSize=36;" parent="1" target="vNjgoKGC3daDF4KBpXQI-175" edge="1">
          <mxGeometry width="50" height="50" relative="1" as="geometry">
            <mxPoint x="1630" y="740" as="sourcePoint" />
            <mxPoint x="1630" y="1410" as="targetPoint" />
            <Array as="points">
              <mxPoint x="1630" y="1397" />
            </Array>
          </mxGeometry>
        </mxCell>
        <mxCell id="vNjgoKGC3daDF4KBpXQI-181" value="" style="endArrow=classic;html=1;rounded=0;entryX=0.89;entryY=0.89;entryDx=0;entryDy=0;entryPerimeter=0;jumpStyle=arc;jumpSize=36;" parent="1" target="vNjgoKGC3daDF4KBpXQI-176" edge="1">
          <mxGeometry width="50" height="50" relative="1" as="geometry">
            <mxPoint x="1670" y="840" as="sourcePoint" />
            <mxPoint x="1450" y="1590" as="targetPoint" />
            <Array as="points">
              <mxPoint x="1670" y="1480" />
              <mxPoint x="1540" y="1480" />
              <mxPoint x="1540" y="1587" />
            </Array>
          </mxGeometry>
        </mxCell>
        <mxCell id="vNjgoKGC3daDF4KBpXQI-182" value="" style="endArrow=classic;html=1;rounded=0;entryX=0;entryY=0.981;entryDx=0;entryDy=0;entryPerimeter=0;" parent="1" target="vNjgoKGC3daDF4KBpXQI-105" edge="1">
          <mxGeometry width="50" height="50" relative="1" as="geometry">
            <mxPoint x="800" y="1380" as="sourcePoint" />
            <mxPoint x="1690" y="1360" as="targetPoint" />
            <Array as="points">
              <mxPoint x="880" y="1380" />
              <mxPoint x="880" y="1770" />
              <mxPoint x="1690" y="1770" />
              <mxPoint x="1690" y="1400" />
            </Array>
          </mxGeometry>
        </mxCell>
        <mxCell id="vNjgoKGC3daDF4KBpXQI-184" value="&lt;font style=&quot;font-size: 24px;&quot;&gt;PCID, INSTRUCID[11:7], &lt;/font&gt;&lt;font style=&quot;font-size: 24px;&quot;&gt;INSTRUCID[31:25], &lt;/font&gt;&lt;font style=&quot;font-size: 24px;&quot;&gt;INSTRUCID[14:12], &lt;/font&gt;&lt;font style=&quot;font-size: 24px;&quot;&gt;INSTRUCID[19:15], &lt;/font&gt;&lt;font style=&quot;font-size: 24px;&quot;&gt;INSTRUCID[24:20]&lt;/font&gt;" style="text;strokeColor=none;align=center;fillColor=none;html=1;verticalAlign=middle;whiteSpace=wrap;rounded=0;" parent="1" vertex="1">
          <mxGeometry x="850" y="1800" width="900" height="30" as="geometry" />
        </mxCell>
        <mxCell id="vNjgoKGC3daDF4KBpXQI-187" value="" style="endArrow=classic;html=1;rounded=0;jumpSize=36;jumpStyle=arc;" parent="1" edge="1">
          <mxGeometry width="50" height="50" relative="1" as="geometry">
            <mxPoint x="1040" y="420" as="sourcePoint" />
            <mxPoint x="1010" y="1520" as="targetPoint" />
            <Array as="points">
              <mxPoint x="1490" y="420" />
              <mxPoint x="1490" y="1190" />
              <mxPoint x="1100" y="1190" />
              <mxPoint x="1100" y="1520" />
            </Array>
          </mxGeometry>
        </mxCell>
        <mxCell id="vNjgoKGC3daDF4KBpXQI-188" value="" style="endArrow=classic;html=1;rounded=0;" parent="1" edge="1">
          <mxGeometry width="50" height="50" relative="1" as="geometry">
            <mxPoint x="1220" y="1540" as="sourcePoint" />
            <mxPoint x="1000" y="1540" as="targetPoint" />
          </mxGeometry>
        </mxCell>
        <mxCell id="vNjgoKGC3daDF4KBpXQI-189" value="" style="shape=xor;whiteSpace=wrap;html=1;rotation=-180;" parent="1" vertex="1">
          <mxGeometry x="950" y="1490" width="80" height="80" as="geometry" />
        </mxCell>
        <mxCell id="vNjgoKGC3daDF4KBpXQI-190" value="&lt;font style=&quot;font-size: 36px;&quot;&gt;OR&lt;/font&gt;" style="text;strokeColor=none;align=center;fillColor=none;html=1;verticalAlign=middle;whiteSpace=wrap;rounded=0;connectable=0;allowArrows=0;" parent="1" vertex="1">
          <mxGeometry x="960" y="1505" width="51.33" height="50" as="geometry" />
        </mxCell>
        <mxCell id="vNjgoKGC3daDF4KBpXQI-191" value="" style="endArrow=classic;html=1;rounded=0;entryX=0;entryY=0.5;entryDx=0;entryDy=0;entryPerimeter=0;" parent="1" target="vNjgoKGC3daDF4KBpXQI-11" edge="1">
          <mxGeometry width="50" height="50" relative="1" as="geometry">
            <mxPoint x="950" y="1530" as="sourcePoint" />
            <mxPoint x="220" y="1490" as="targetPoint" />
            <Array as="points">
              <mxPoint x="170" y="1530" />
            </Array>
          </mxGeometry>
        </mxCell>
        <mxCell id="vNjgoKGC3daDF4KBpXQI-192" value="&lt;font style=&quot;font-size: 24px;&quot;&gt;PCSRCID&lt;br&gt;&lt;/font&gt;" style="text;strokeColor=none;align=center;fillColor=none;html=1;verticalAlign=middle;whiteSpace=wrap;rounded=0;" parent="1" vertex="1">
          <mxGeometry x="330" y="1505" width="80" height="30" as="geometry" />
        </mxCell>
        <mxCell id="vNjgoKGC3daDF4KBpXQI-193" value="&lt;font style=&quot;font-size: 24px;&quot;&gt;BRIDGEID&lt;br&gt;&lt;/font&gt;" style="text;strokeColor=none;align=center;fillColor=none;html=1;verticalAlign=middle;whiteSpace=wrap;rounded=0;" parent="1" vertex="1">
          <mxGeometry x="1020" y="390" width="306.33" height="30" as="geometry" />
        </mxCell>
        <mxCell id="vNjgoKGC3daDF4KBpXQI-196" value="" style="endArrow=classic;html=1;rounded=0;" parent="1" edge="1">
          <mxGeometry width="50" height="50" relative="1" as="geometry">
            <mxPoint x="1390" y="1450" as="sourcePoint" />
            <mxPoint x="1300" y="1488" as="targetPoint" />
            <Array as="points">
              <mxPoint x="1350" y="1450" />
              <mxPoint x="1350" y="1488" />
            </Array>
          </mxGeometry>
        </mxCell>
        <mxCell id="vNjgoKGC3daDF4KBpXQI-197" value="" style="endArrow=classic;html=1;rounded=0;entryX=1;entryY=0.578;entryDx=0;entryDy=0;entryPerimeter=0;" parent="1" target="vNjgoKGC3daDF4KBpXQI-174" edge="1">
          <mxGeometry width="50" height="50" relative="1" as="geometry">
            <mxPoint x="1380" y="1640" as="sourcePoint" />
            <mxPoint x="1350" y="1590" as="targetPoint" />
            <Array as="points">
              <mxPoint x="1360" y="1640" />
              <mxPoint x="1360" y="1558" />
            </Array>
          </mxGeometry>
        </mxCell>
        <mxCell id="vNjgoKGC3daDF4KBpXQI-201" value="&lt;font style=&quot;font-size: 36px;&quot;&gt;ALU&lt;br&gt;&lt;/font&gt;" style="text;strokeColor=none;align=center;fillColor=none;html=1;verticalAlign=middle;whiteSpace=wrap;rounded=0;" parent="1" vertex="1">
          <mxGeometry x="2280" y="840" width="60" height="20" as="geometry" />
        </mxCell>
        <mxCell id="vNjgoKGC3daDF4KBpXQI-203" value="" style="strokeWidth=2;html=1;shape=mxgraph.flowchart.terminator;whiteSpace=wrap;rotation=-91;" parent="1" vertex="1">
          <mxGeometry x="1949.9960623748943" y="745.8873526568141" width="147.33" height="60" as="geometry" />
        </mxCell>
        <mxCell id="vNjgoKGC3daDF4KBpXQI-204" value="" style="strokeWidth=2;html=1;shape=mxgraph.flowchart.terminator;whiteSpace=wrap;rotation=-91;" parent="1" vertex="1">
          <mxGeometry x="1949.9960623748943" y="939.997352656814" width="147.33" height="60" as="geometry" />
        </mxCell>
        <mxCell id="vNjgoKGC3daDF4KBpXQI-205" value="&lt;font style=&quot;font-size: 36px;&quot;&gt;MUX&lt;/font&gt;" style="text;strokeColor=none;align=center;fillColor=none;html=1;verticalAlign=middle;whiteSpace=wrap;rounded=0;connectable=0;allowArrows=0;" parent="1" vertex="1">
          <mxGeometry x="1998" y="760" width="51.33" height="40" as="geometry" />
        </mxCell>
        <mxCell id="vNjgoKGC3daDF4KBpXQI-206" value="&lt;font style=&quot;font-size: 36px;&quot;&gt;MUX&lt;/font&gt;" style="text;strokeColor=none;align=center;fillColor=none;html=1;verticalAlign=middle;whiteSpace=wrap;rounded=0;connectable=0;allowArrows=0;" parent="1" vertex="1">
          <mxGeometry x="1998.67" y="940" width="51.33" height="40" as="geometry" />
        </mxCell>
        <mxCell id="vNjgoKGC3daDF4KBpXQI-207" value="" style="endArrow=classic;html=1;rounded=0;" parent="1" edge="1">
          <mxGeometry width="50" height="50" relative="1" as="geometry">
            <mxPoint x="1810" y="740" as="sourcePoint" />
            <mxPoint x="1990" y="740" as="targetPoint" />
          </mxGeometry>
        </mxCell>
        <mxCell id="vNjgoKGC3daDF4KBpXQI-208" value="" style="endArrow=classic;html=1;rounded=0;" parent="1" edge="1">
          <mxGeometry width="50" height="50" relative="1" as="geometry">
            <mxPoint x="1810" y="926.5" as="sourcePoint" />
            <mxPoint x="1990" y="926.5" as="targetPoint" />
          </mxGeometry>
        </mxCell>
        <mxCell id="vNjgoKGC3daDF4KBpXQI-209" value="&lt;font style=&quot;font-size: 24px;&quot;&gt;RD1EX&lt;/font&gt;" style="text;strokeColor=none;align=center;fillColor=none;html=1;verticalAlign=middle;whiteSpace=wrap;rounded=0;" parent="1" vertex="1">
          <mxGeometry x="1743" y="710" width="306.33" height="30" as="geometry" />
        </mxCell>
        <mxCell id="vNjgoKGC3daDF4KBpXQI-210" value="&lt;font style=&quot;font-size: 24px;&quot;&gt;RD2EX&lt;/font&gt;" style="text;whiteSpace=wrap;html=1;" parent="1" vertex="1">
          <mxGeometry x="1860" y="889.11" width="110" height="30" as="geometry" />
        </mxCell>
        <mxCell id="vNjgoKGC3daDF4KBpXQI-211" value="" style="endArrow=classic;html=1;rounded=0;" parent="1" edge="1">
          <mxGeometry width="50" height="50" relative="1" as="geometry">
            <mxPoint x="2060" y="760" as="sourcePoint" />
            <mxPoint x="2220" y="790" as="targetPoint" />
            <Array as="points">
              <mxPoint x="2120" y="760" />
              <mxPoint x="2120" y="790" />
            </Array>
          </mxGeometry>
        </mxCell>
        <mxCell id="vNjgoKGC3daDF4KBpXQI-214" value="" style="strokeWidth=2;html=1;shape=mxgraph.flowchart.terminator;whiteSpace=wrap;rotation=-91;" parent="1" vertex="1">
          <mxGeometry x="2069.9960623748943" y="909.997352656814" width="147.33" height="60" as="geometry" />
        </mxCell>
        <mxCell id="vNjgoKGC3daDF4KBpXQI-215" value="&lt;font style=&quot;font-size: 36px;&quot;&gt;MUX&lt;/font&gt;" style="text;strokeColor=none;align=center;fillColor=none;html=1;verticalAlign=middle;whiteSpace=wrap;rounded=0;connectable=0;allowArrows=0;" parent="1" vertex="1">
          <mxGeometry x="2118" y="922.5" width="51.33" height="40" as="geometry" />
        </mxCell>
        <mxCell id="vNjgoKGC3daDF4KBpXQI-217" value="" style="endArrow=classic;html=1;rounded=0;" parent="1" edge="1">
          <mxGeometry width="50" height="50" relative="1" as="geometry">
            <mxPoint x="2170" y="920" as="sourcePoint" />
            <mxPoint x="2220" y="920" as="targetPoint" />
            <Array as="points" />
          </mxGeometry>
        </mxCell>
        <mxCell id="vNjgoKGC3daDF4KBpXQI-219" value="" style="strokeWidth=2;html=1;shape=mxgraph.flowchart.terminator;whiteSpace=wrap;rotation=-180;" parent="1" vertex="1">
          <mxGeometry x="1960" y="410" width="237.33" height="160" as="geometry" />
        </mxCell>
        <mxCell id="vNjgoKGC3daDF4KBpXQI-220" value="&lt;font style=&quot;font-size: 36px;&quot;&gt;Forwarding&lt;br&gt;&lt;/font&gt;" style="text;strokeColor=none;align=center;fillColor=none;html=1;verticalAlign=middle;whiteSpace=wrap;rounded=0;connectable=0;" parent="1" vertex="1">
          <mxGeometry x="1970" y="420" width="180" height="120" as="geometry" />
        </mxCell>
        <mxCell id="vNjgoKGC3daDF4KBpXQI-221" value="" style="ellipse;whiteSpace=wrap;html=1;" parent="1" vertex="1">
          <mxGeometry x="2070" y="1180" width="120" height="260" as="geometry" />
        </mxCell>
        <mxCell id="vNjgoKGC3daDF4KBpXQI-222" value="&lt;font style=&quot;font-size: 36px;&quot;&gt;ALUControl&lt;/font&gt;" style="text;strokeColor=none;align=center;fillColor=none;html=1;verticalAlign=middle;whiteSpace=wrap;rounded=0;connectable=0;" parent="1" vertex="1">
          <mxGeometry x="2090" y="1302.5" width="60" height="35" as="geometry" />
        </mxCell>
        <mxCell id="vNjgoKGC3daDF4KBpXQI-223" value="" style="endArrow=classic;html=1;rounded=0;exitX=1.037;exitY=0.892;exitDx=0;exitDy=0;exitPerimeter=0;" parent="1" source="vNjgoKGC3daDF4KBpXQI-105" target="vNjgoKGC3daDF4KBpXQI-221" edge="1">
          <mxGeometry width="50" height="50" relative="1" as="geometry">
            <mxPoint x="1820" y="1320" as="sourcePoint" />
            <mxPoint x="1860" y="1280" as="targetPoint" />
          </mxGeometry>
        </mxCell>
        <mxCell id="vNjgoKGC3daDF4KBpXQI-224" value="&lt;div&gt;&lt;font style=&quot;font-size: 24px;&quot;&gt;ALUOP1EX, ALUOP2EX, ALUOPT3EX&lt;/font&gt;&lt;/div&gt;&lt;div&gt;&lt;font style=&quot;font-size: 24px;&quot;&gt;FUNC7EX,&lt;/font&gt;&lt;/div&gt;&lt;div&gt;&lt;font style=&quot;font-size: 24px;&quot;&gt;FUNC3EX&lt;br&gt;&lt;/font&gt;&lt;/div&gt;" style="text;strokeColor=none;align=center;fillColor=none;html=1;verticalAlign=middle;whiteSpace=wrap;rounded=0;" parent="1" vertex="1">
          <mxGeometry x="1826.16" y="1380" width="140" height="30" as="geometry" />
        </mxCell>
        <mxCell id="vNjgoKGC3daDF4KBpXQI-225" value="" style="endArrow=classic;html=1;rounded=0;jumpStyle=arc;jumpSize=36;" parent="1" edge="1">
          <mxGeometry width="50" height="50" relative="1" as="geometry">
            <mxPoint x="2180" y="1320" as="sourcePoint" />
            <mxPoint x="2300" y="910" as="targetPoint" />
            <Array as="points">
              <mxPoint x="2300" y="1320" />
            </Array>
          </mxGeometry>
        </mxCell>
        <mxCell id="vNjgoKGC3daDF4KBpXQI-226" value="&lt;font style=&quot;font-size: 24px;&quot;&gt;Op&lt;/font&gt;" style="text;strokeColor=none;align=center;fillColor=none;html=1;verticalAlign=middle;whiteSpace=wrap;rounded=0;" parent="1" vertex="1">
          <mxGeometry x="2200" y="1285" width="60" height="30" as="geometry" />
        </mxCell>
        <mxCell id="vNjgoKGC3daDF4KBpXQI-227" value="&lt;font style=&quot;font-size: 24px;&quot;&gt;ALUOUTEX&lt;/font&gt;" style="text;strokeColor=none;align=center;fillColor=none;html=1;verticalAlign=middle;whiteSpace=wrap;rounded=0;" parent="1" vertex="1">
          <mxGeometry x="2350" y="820" width="130" height="30" as="geometry" />
        </mxCell>
        <mxCell id="vNjgoKGC3daDF4KBpXQI-229" value="" style="endArrow=classic;html=1;rounded=0;entryX=0.713;entryY=0;entryDx=0;entryDy=0;entryPerimeter=0;" parent="1" target="vNjgoKGC3daDF4KBpXQI-219" edge="1">
          <mxGeometry width="50" height="50" relative="1" as="geometry">
            <mxPoint x="1800" y="660" as="sourcePoint" />
            <mxPoint x="1870" y="610" as="targetPoint" />
            <Array as="points">
              <mxPoint x="2030" y="660" />
            </Array>
          </mxGeometry>
        </mxCell>
        <mxCell id="vNjgoKGC3daDF4KBpXQI-230" value="&lt;div&gt;&lt;font style=&quot;font-size: 24px;&quot;&gt;RESRS1_EX,&lt;/font&gt;&lt;/div&gt;&lt;div&gt;&lt;font style=&quot;font-size: 24px;&quot;&gt;REXRS2_EX&lt;br&gt;&lt;/font&gt;&lt;/div&gt;" style="text;strokeColor=none;align=center;fillColor=none;html=1;verticalAlign=middle;whiteSpace=wrap;rounded=0;" parent="1" vertex="1">
          <mxGeometry x="1885" y="600" width="60" height="40" as="geometry" />
        </mxCell>
        <mxCell id="vNjgoKGC3daDF4KBpXQI-232" value="" style="endArrow=classic;html=1;rounded=0;entryX=0.963;entryY=-0.267;entryDx=0;entryDy=0;entryPerimeter=0;" parent="1" target="vNjgoKGC3daDF4KBpXQI-209" edge="1">
          <mxGeometry width="50" height="50" relative="1" as="geometry">
            <mxPoint x="2200" y="490" as="sourcePoint" />
            <mxPoint x="2250" y="440" as="targetPoint" />
            <Array as="points">
              <mxPoint x="2200" y="702" />
            </Array>
          </mxGeometry>
        </mxCell>
        <mxCell id="vNjgoKGC3daDF4KBpXQI-233" value="" style="endArrow=classic;html=1;rounded=0;exitX=0.11;exitY=0.89;exitDx=0;exitDy=0;exitPerimeter=0;entryX=1;entryY=0.5;entryDx=0;entryDy=0;entryPerimeter=0;jumpSize=36;jumpStyle=arc;" parent="1" source="vNjgoKGC3daDF4KBpXQI-219" target="vNjgoKGC3daDF4KBpXQI-204" edge="1">
          <mxGeometry width="50" height="50" relative="1" as="geometry">
            <mxPoint x="2200" y="470" as="sourcePoint" />
            <mxPoint x="2130" y="830" as="targetPoint" />
            <Array as="points">
              <mxPoint x="2270" y="428" />
              <mxPoint x="2270" y="740" />
              <mxPoint x="2140" y="740" />
              <mxPoint x="2140" y="830" />
              <mxPoint x="2080" y="830" />
              <mxPoint x="2080" y="896" />
            </Array>
          </mxGeometry>
        </mxCell>
        <mxCell id="vNjgoKGC3daDF4KBpXQI-234" value="&lt;font style=&quot;font-size: 24px;&quot;&gt;ForwardB&lt;/font&gt;" style="text;strokeColor=none;align=center;fillColor=none;html=1;verticalAlign=middle;whiteSpace=wrap;rounded=0;" parent="1" vertex="1">
          <mxGeometry x="2280" y="560" width="60" height="30" as="geometry" />
        </mxCell>
        <mxCell id="vNjgoKGC3daDF4KBpXQI-235" value="&lt;font style=&quot;font-size: 24px;&quot;&gt;ForwardA&lt;/font&gt;" style="text;strokeColor=none;align=center;fillColor=none;html=1;verticalAlign=middle;whiteSpace=wrap;rounded=0;" parent="1" vertex="1">
          <mxGeometry x="2157.33" y="530" width="60" height="130" as="geometry" />
        </mxCell>
        <mxCell id="vNjgoKGC3daDF4KBpXQI-240" value="" style="endArrow=classic;html=1;rounded=0;entryX=0;entryY=0.5;entryDx=0;entryDy=0;entryPerimeter=0;jumpStyle=arc;jumpSize=36;" parent="1" target="vNjgoKGC3daDF4KBpXQI-176" edge="1">
          <mxGeometry width="50" height="50" relative="1" as="geometry">
            <mxPoint x="2270" y="740" as="sourcePoint" />
            <mxPoint x="2380" y="1750" as="targetPoint" />
            <Array as="points">
              <mxPoint x="2560" y="740" />
              <mxPoint x="2560" y="1740" />
              <mxPoint x="1415" y="1750" />
            </Array>
          </mxGeometry>
        </mxCell>
        <mxCell id="vNjgoKGC3daDF4KBpXQI-242" value="" style="endArrow=classic;html=1;rounded=0;entryX=0;entryY=0.5;entryDx=0;entryDy=0;entryPerimeter=0;jumpStyle=arc;jumpSize=36;" parent="1" target="vNjgoKGC3daDF4KBpXQI-175" edge="1">
          <mxGeometry width="50" height="50" relative="1" as="geometry">
            <mxPoint x="2200" y="680" as="sourcePoint" />
            <mxPoint x="1960" y="1590" as="targetPoint" />
            <Array as="points">
              <mxPoint x="1960" y="680" />
              <mxPoint x="1960" y="1520" />
            </Array>
          </mxGeometry>
        </mxCell>
        <mxCell id="vNjgoKGC3daDF4KBpXQI-243" value="" style="rounded=0;whiteSpace=wrap;html=1;" parent="1" vertex="1">
          <mxGeometry x="2770" y="417.5" width="80" height="1050" as="geometry" />
        </mxCell>
        <mxCell id="vNjgoKGC3daDF4KBpXQI-244" value="&lt;font style=&quot;font-size: 36px;&quot;&gt;EX/MEM&lt;br&gt;&lt;/font&gt;" style="text;strokeColor=none;align=center;fillColor=none;html=1;verticalAlign=middle;whiteSpace=wrap;rounded=0;" parent="1" vertex="1">
          <mxGeometry x="2780" y="888.39" width="40" height="59.11" as="geometry" />
        </mxCell>
        <mxCell id="vNjgoKGC3daDF4KBpXQI-245" value="" style="endArrow=classic;html=1;rounded=0;entryX=0;entryY=0.602;entryDx=0;entryDy=0;entryPerimeter=0;jumpStyle=arc;jumpSize=36;" parent="1" target="vNjgoKGC3daDF4KBpXQI-243" edge="1">
          <mxGeometry width="50" height="50" relative="1" as="geometry">
            <mxPoint x="2350" y="880" as="sourcePoint" />
            <mxPoint x="2470" y="1000" as="targetPoint" />
            <Array as="points">
              <mxPoint x="2400" y="880" />
              <mxPoint x="2400" y="1050" />
            </Array>
          </mxGeometry>
        </mxCell>
        <mxCell id="vNjgoKGC3daDF4KBpXQI-247" value="" style="endArrow=classic;html=1;rounded=0;entryX=0.01;entryY=0.059;entryDx=0;entryDy=0;entryPerimeter=0;" parent="1" target="vNjgoKGC3daDF4KBpXQI-243" edge="1">
          <mxGeometry width="50" height="50" relative="1" as="geometry">
            <mxPoint x="1810" y="440" as="sourcePoint" />
            <mxPoint x="2560" y="300" as="targetPoint" />
            <Array as="points">
              <mxPoint x="1940" y="440" />
              <mxPoint x="1940" y="320" />
              <mxPoint x="2600" y="320" />
              <mxPoint x="2600" y="479" />
            </Array>
          </mxGeometry>
        </mxCell>
        <mxCell id="vNjgoKGC3daDF4KBpXQI-248" value="&lt;div&gt;&lt;font style=&quot;font-size: 24px;&quot;&gt;ALUOUTEX, WREX, MEMREADEX,&lt;/font&gt;&lt;/div&gt;&lt;div&gt;&lt;font style=&quot;font-size: 24px;&quot;&gt;MEMWRITEEX, MEMTOREGEX, REGWRITEEX&lt;br&gt;&lt;/font&gt;&lt;/div&gt;" style="text;strokeColor=none;align=center;fillColor=none;html=1;verticalAlign=middle;whiteSpace=wrap;rounded=0;" parent="1" vertex="1">
          <mxGeometry x="2170" y="260" width="520" height="30" as="geometry" />
        </mxCell>
        <mxCell id="vNjgoKGC3daDF4KBpXQI-250" value="" style="endArrow=classic;html=1;rounded=0;entryX=0.11;entryY=0.11;entryDx=0;entryDy=0;entryPerimeter=0;jumpStyle=arc;jumpSize=36;" parent="1" target="vNjgoKGC3daDF4KBpXQI-214" edge="1">
          <mxGeometry width="50" height="50" relative="1" as="geometry">
            <mxPoint x="1810" y="1140" as="sourcePoint" />
            <mxPoint x="1860" y="1100" as="targetPoint" />
            <Array as="points">
              <mxPoint x="2080" y="1140" />
              <mxPoint x="2121" y="1140" />
            </Array>
          </mxGeometry>
        </mxCell>
        <mxCell id="vNjgoKGC3daDF4KBpXQI-251" value="&lt;font style=&quot;font-size: 24px;&quot;&gt;IMMEX&lt;/font&gt;" style="text;strokeColor=none;align=center;fillColor=none;html=1;verticalAlign=middle;whiteSpace=wrap;rounded=0;" parent="1" vertex="1">
          <mxGeometry x="1826.1599999999999" y="1120" width="60" height="20" as="geometry" />
        </mxCell>
        <mxCell id="vNjgoKGC3daDF4KBpXQI-252" value="" style="endArrow=classic;html=1;rounded=0;jumpStyle=arc;jumpSize=36;" parent="1" edge="1">
          <mxGeometry width="50" height="50" relative="1" as="geometry">
            <mxPoint x="2840" y="1040" as="sourcePoint" />
            <mxPoint x="2000" y="790" as="targetPoint" />
            <Array as="points">
              <mxPoint x="2990" y="1040" />
              <mxPoint x="2990" y="1690" />
              <mxPoint x="1850" y="1700" />
              <mxPoint x="1850" y="790" />
            </Array>
          </mxGeometry>
        </mxCell>
        <mxCell id="vNjgoKGC3daDF4KBpXQI-253" value="" style="endArrow=classic;html=1;rounded=0;jumpStyle=arc;jumpSize=36;" parent="1" edge="1">
          <mxGeometry width="50" height="50" relative="1" as="geometry">
            <mxPoint x="1850" y="970" as="sourcePoint" />
            <mxPoint x="1990" y="970" as="targetPoint" />
          </mxGeometry>
        </mxCell>
        <mxCell id="vNjgoKGC3daDF4KBpXQI-257" value="" style="rounded=0;whiteSpace=wrap;html=1;" parent="1" vertex="1">
          <mxGeometry x="3090" y="670" width="340" height="485" as="geometry" />
        </mxCell>
        <mxCell id="vNjgoKGC3daDF4KBpXQI-258" value="&lt;font style=&quot;font-size: 36px;&quot;&gt;DM&lt;br&gt;&lt;/font&gt;" style="text;strokeColor=none;align=center;fillColor=none;html=1;verticalAlign=middle;whiteSpace=wrap;rounded=0;" parent="1" vertex="1">
          <mxGeometry x="3210" y="892.5" width="90" height="30" as="geometry" />
        </mxCell>
        <mxCell id="vNjgoKGC3daDF4KBpXQI-259" value="" style="endArrow=classic;html=1;rounded=0;" parent="1" edge="1">
          <mxGeometry width="50" height="50" relative="1" as="geometry">
            <mxPoint x="2990" y="1050" as="sourcePoint" />
            <mxPoint x="3090" y="760" as="targetPoint" />
            <Array as="points">
              <mxPoint x="2990" y="760" />
            </Array>
          </mxGeometry>
        </mxCell>
        <mxCell id="vNjgoKGC3daDF4KBpXQI-260" value="&lt;font style=&quot;font-size: 24px;&quot;&gt;Addr&lt;br&gt;&lt;/font&gt;" style="text;strokeColor=none;align=center;fillColor=none;html=1;verticalAlign=middle;whiteSpace=wrap;rounded=0;" parent="1" vertex="1">
          <mxGeometry x="3100" y="745.89" width="60" height="30" as="geometry" />
        </mxCell>
        <mxCell id="vNjgoKGC3daDF4KBpXQI-262" value="" style="endArrow=classic;html=1;rounded=0;exitX=0.5;exitY=1;exitDx=0;exitDy=0;exitPerimeter=0;" parent="1" source="vNjgoKGC3daDF4KBpXQI-204" edge="1">
          <mxGeometry width="50" height="50" relative="1" as="geometry">
            <mxPoint x="2050" y="940" as="sourcePoint" />
            <mxPoint x="2110" y="920" as="targetPoint" />
            <Array as="points">
              <mxPoint x="2080" y="969" />
              <mxPoint x="2080" y="920" />
            </Array>
          </mxGeometry>
        </mxCell>
        <mxCell id="vNjgoKGC3daDF4KBpXQI-264" value="" style="endArrow=classic;html=1;rounded=0;jumpStyle=arc;jumpSize=36;" parent="1" edge="1">
          <mxGeometry width="50" height="50" relative="1" as="geometry">
            <mxPoint x="2080" y="930" as="sourcePoint" />
            <mxPoint x="2760" y="1100" as="targetPoint" />
            <Array as="points">
              <mxPoint x="2080" y="1100" />
            </Array>
          </mxGeometry>
        </mxCell>
        <mxCell id="vNjgoKGC3daDF4KBpXQI-265" value="" style="endArrow=classic;html=1;rounded=0;entryX=0;entryY=0.598;entryDx=0;entryDy=0;entryPerimeter=0;jumpStyle=arc;jumpSize=36;" parent="1" target="vNjgoKGC3daDF4KBpXQI-257" edge="1">
          <mxGeometry width="50" height="50" relative="1" as="geometry">
            <mxPoint x="2850" y="960" as="sourcePoint" />
            <mxPoint x="2900" y="910" as="targetPoint" />
          </mxGeometry>
        </mxCell>
        <mxCell id="vNjgoKGC3daDF4KBpXQI-266" value="&lt;font style=&quot;font-size: 24px;&quot;&gt;WriteData&lt;font&gt;&lt;br&gt;&lt;/font&gt;&lt;/font&gt;" style="text;strokeColor=none;align=center;fillColor=none;html=1;verticalAlign=middle;whiteSpace=wrap;rounded=0;" parent="1" vertex="1">
          <mxGeometry x="3120" y="950" width="60" height="30" as="geometry" />
        </mxCell>
        <mxCell id="vNjgoKGC3daDF4KBpXQI-254" value="&lt;font style=&quot;font-size: 24px;&quot;&gt;ALUOUTMEM&lt;br&gt;&lt;/font&gt;" style="text;strokeColor=none;align=center;fillColor=none;html=1;verticalAlign=middle;whiteSpace=wrap;rounded=0;" parent="1" vertex="1">
          <mxGeometry x="2860" y="1080" width="90" height="50" as="geometry" />
        </mxCell>
        <mxCell id="vNjgoKGC3daDF4KBpXQI-268" value="" style="endArrow=classic;html=1;rounded=0;entryX=0.571;entryY=-0.003;entryDx=0;entryDy=0;entryPerimeter=0;" parent="1" target="vNjgoKGC3daDF4KBpXQI-257" edge="1">
          <mxGeometry width="50" height="50" relative="1" as="geometry">
            <mxPoint x="2860" y="590" as="sourcePoint" />
            <mxPoint x="3280" y="560" as="targetPoint" />
            <Array as="points">
              <mxPoint x="3284" y="590" />
            </Array>
          </mxGeometry>
        </mxCell>
        <mxCell id="vNjgoKGC3daDF4KBpXQI-269" value="&lt;font style=&quot;font-size: 24px;&quot;&gt;MEMWRITEMEM, MEMREADMEM&lt;br&gt;&lt;/font&gt;" style="text;strokeColor=none;align=center;fillColor=none;html=1;verticalAlign=middle;whiteSpace=wrap;rounded=0;" parent="1" vertex="1">
          <mxGeometry x="3020" y="550" width="60" height="30" as="geometry" />
        </mxCell>
        <mxCell id="vNjgoKGC3daDF4KBpXQI-270" value="&lt;font style=&quot;font-size: 24px;&quot;&gt;ReadData&lt;br&gt;&lt;/font&gt;" style="text;strokeColor=none;align=center;fillColor=none;html=1;verticalAlign=middle;whiteSpace=wrap;rounded=0;" parent="1" vertex="1">
          <mxGeometry x="3340" y="760" width="60" height="30" as="geometry" />
        </mxCell>
        <mxCell id="vNjgoKGC3daDF4KBpXQI-271" value="" style="rounded=0;whiteSpace=wrap;html=1;" parent="1" vertex="1">
          <mxGeometry x="3560" y="435" width="80" height="1050" as="geometry" />
        </mxCell>
        <mxCell id="vNjgoKGC3daDF4KBpXQI-272" value="&lt;font style=&quot;font-size: 36px;&quot;&gt;MEM/WB&lt;br&gt;&lt;/font&gt;" style="text;strokeColor=none;align=center;fillColor=none;html=1;verticalAlign=middle;whiteSpace=wrap;rounded=0;" parent="1" vertex="1">
          <mxGeometry x="3590" y="875.89" width="40" height="59.11" as="geometry" />
        </mxCell>
        <mxCell id="vNjgoKGC3daDF4KBpXQI-273" value="" style="endArrow=classic;html=1;rounded=0;" parent="1" edge="1">
          <mxGeometry width="50" height="50" relative="1" as="geometry">
            <mxPoint x="3430" y="780" as="sourcePoint" />
            <mxPoint x="3560" y="780" as="targetPoint" />
          </mxGeometry>
        </mxCell>
        <mxCell id="vNjgoKGC3daDF4KBpXQI-274" value="&lt;font style=&quot;font-size: 24px;&quot;&gt;DMout&lt;/font&gt;" style="text;strokeColor=none;align=center;fillColor=none;html=1;verticalAlign=middle;whiteSpace=wrap;rounded=0;" parent="1" vertex="1">
          <mxGeometry x="3470" y="735" width="60" height="30" as="geometry" />
        </mxCell>
        <mxCell id="vNjgoKGC3daDF4KBpXQI-275" value="" style="endArrow=classic;html=1;rounded=0;entryX=-0.032;entryY=0.804;entryDx=0;entryDy=0;entryPerimeter=0;jumpStyle=arc;jumpSize=36;" parent="1" target="vNjgoKGC3daDF4KBpXQI-271" edge="1">
          <mxGeometry width="50" height="50" relative="1" as="geometry">
            <mxPoint x="2850" y="1280" as="sourcePoint" />
            <mxPoint x="2900" y="1230" as="targetPoint" />
          </mxGeometry>
        </mxCell>
        <mxCell id="vNjgoKGC3daDF4KBpXQI-276" value="&lt;div&gt;&lt;font style=&quot;font-size: 24px;&quot;&gt;ALUOUTMEM, WRMEM,&lt;/font&gt;&lt;/div&gt;&lt;div&gt;&lt;font style=&quot;font-size: 24px;&quot;&gt;MEMTOREGMEM, REGWRITEMEM&lt;br&gt;&lt;/font&gt;&lt;/div&gt;" style="text;strokeColor=none;align=center;fillColor=none;html=1;verticalAlign=middle;whiteSpace=wrap;rounded=0;" parent="1" vertex="1">
          <mxGeometry x="3050" y="1300" width="360" height="90" as="geometry" />
        </mxCell>
        <mxCell id="vNjgoKGC3daDF4KBpXQI-277" value="" style="strokeWidth=2;html=1;shape=mxgraph.flowchart.terminator;whiteSpace=wrap;rotation=-91;" parent="1" vertex="1">
          <mxGeometry x="3769.9960623748943" y="909.997352656814" width="147.33" height="60" as="geometry" />
        </mxCell>
        <mxCell id="vNjgoKGC3daDF4KBpXQI-278" value="&lt;font style=&quot;font-size: 36px;&quot;&gt;MUX&lt;/font&gt;" style="text;strokeColor=none;align=center;fillColor=none;html=1;verticalAlign=middle;whiteSpace=wrap;rounded=0;connectable=0;allowArrows=0;" parent="1" vertex="1">
          <mxGeometry x="3818" y="910" width="51.33" height="40" as="geometry" />
        </mxCell>
        <mxCell id="vNjgoKGC3daDF4KBpXQI-279" value="" style="endArrow=classic;html=1;rounded=0;" parent="1" edge="1">
          <mxGeometry width="50" height="50" relative="1" as="geometry">
            <mxPoint x="3630" y="900" as="sourcePoint" />
            <mxPoint x="3810" y="900" as="targetPoint" />
          </mxGeometry>
        </mxCell>
        <mxCell id="vNjgoKGC3daDF4KBpXQI-280" value="" style="endArrow=classic;html=1;rounded=0;entryX=0.11;entryY=0.11;entryDx=0;entryDy=0;entryPerimeter=0;" parent="1" target="vNjgoKGC3daDF4KBpXQI-277" edge="1">
          <mxGeometry width="50" height="50" relative="1" as="geometry">
            <mxPoint x="3640" y="1000" as="sourcePoint" />
            <mxPoint x="3690" y="950" as="targetPoint" />
          </mxGeometry>
        </mxCell>
        <mxCell id="vNjgoKGC3daDF4KBpXQI-281" value="&lt;font style=&quot;font-size: 24px;&quot;&gt;ALUOUTWB&lt;/font&gt;" style="text;strokeColor=none;align=center;fillColor=none;html=1;verticalAlign=middle;whiteSpace=wrap;rounded=0;" parent="1" vertex="1">
          <mxGeometry x="3700" y="860" width="60" height="30" as="geometry" />
        </mxCell>
        <mxCell id="vNjgoKGC3daDF4KBpXQI-282" value="&lt;font style=&quot;font-size: 24px;&quot;&gt;DMOUTWB&lt;br&gt;&lt;/font&gt;" style="text;strokeColor=none;align=center;fillColor=none;html=1;verticalAlign=middle;whiteSpace=wrap;rounded=0;" parent="1" vertex="1">
          <mxGeometry x="3700" y="1010" width="40" height="30" as="geometry" />
        </mxCell>
        <mxCell id="vNjgoKGC3daDF4KBpXQI-283" value="" style="endArrow=classic;html=1;rounded=0;jumpStyle=arc;jumpSize=36;entryX=-0.021;entryY=0.782;entryDx=0;entryDy=0;entryPerimeter=0;" parent="1" target="vNjgoKGC3daDF4KBpXQI-42" edge="1">
          <mxGeometry width="50" height="50" relative="1" as="geometry">
            <mxPoint x="3880" y="950" as="sourcePoint" />
            <mxPoint x="1110" y="1090" as="targetPoint" />
            <Array as="points">
              <mxPoint x="3940" y="950" />
              <mxPoint x="3950" y="1870" />
              <mxPoint x="900" y="1890" />
              <mxPoint x="900" y="1064" />
              <mxPoint x="1020" y="1064" />
            </Array>
          </mxGeometry>
        </mxCell>
        <mxCell id="vNjgoKGC3daDF4KBpXQI-285" value="" style="endArrow=classic;html=1;rounded=0;entryX=0.006;entryY=0.653;entryDx=0;entryDy=0;entryPerimeter=0;jumpStyle=arc;jumpSize=36;" parent="1" target="vNjgoKGC3daDF4KBpXQI-42" edge="1">
          <mxGeometry width="50" height="50" relative="1" as="geometry">
            <mxPoint x="3640" y="1370" as="sourcePoint" />
            <mxPoint x="890" y="1000" as="targetPoint" />
            <Array as="points">
              <mxPoint x="3760" y="1370" />
              <mxPoint x="3760" y="1800" />
              <mxPoint x="840" y="1840" />
              <mxPoint x="840" y="1000" />
            </Array>
          </mxGeometry>
        </mxCell>
        <mxCell id="vNjgoKGC3daDF4KBpXQI-286" value="&lt;font style=&quot;font-size: 24px;&quot;&gt;WRWB&lt;/font&gt;" style="text;strokeColor=none;align=center;fillColor=none;html=1;verticalAlign=middle;whiteSpace=wrap;rounded=0;" parent="1" vertex="1">
          <mxGeometry x="3690" y="1340" width="60" height="50" as="geometry" />
        </mxCell>
        <mxCell id="vNjgoKGC3daDF4KBpXQI-287" value="" style="endArrow=classic;html=1;rounded=0;exitX=1.024;exitY=0.919;exitDx=0;exitDy=0;exitPerimeter=0;jumpStyle=arc;jumpSize=36;" parent="1" source="vNjgoKGC3daDF4KBpXQI-271" edge="1">
          <mxGeometry width="50" height="50" relative="1" as="geometry">
            <mxPoint x="3470" y="1600" as="sourcePoint" />
            <mxPoint x="1990" y="820" as="targetPoint" />
            <Array as="points">
              <mxPoint x="3720" y="1400" />
              <mxPoint x="3720" y="1760" />
              <mxPoint x="2600" y="1760" />
              <mxPoint x="2600" y="1170" />
              <mxPoint x="1890" y="1190" />
              <mxPoint x="1890" y="820" />
            </Array>
          </mxGeometry>
        </mxCell>
        <mxCell id="vNjgoKGC3daDF4KBpXQI-290" value="" style="endArrow=classic;html=1;rounded=0;entryX=0.11;entryY=0.11;entryDx=0;entryDy=0;entryPerimeter=0;jumpStyle=arc;jumpSize=36;" parent="1" target="vNjgoKGC3daDF4KBpXQI-204" edge="1">
          <mxGeometry width="50" height="50" relative="1" as="geometry">
            <mxPoint x="1890" y="1028" as="sourcePoint" />
            <mxPoint x="1940" y="970" as="targetPoint" />
          </mxGeometry>
        </mxCell>
        <mxCell id="vNjgoKGC3daDF4KBpXQI-291" value="&lt;font style=&quot;font-size: 24px;&quot;&gt;DMOUTWB&lt;/font&gt;" style="text;strokeColor=none;align=center;fillColor=none;html=1;verticalAlign=middle;whiteSpace=wrap;rounded=0;" parent="1" vertex="1">
          <mxGeometry x="3660" y="1430" width="60" height="50" as="geometry" />
        </mxCell>
        <mxCell id="vNjgoKGC3daDF4KBpXQI-293" value="" style="endArrow=classic;html=1;rounded=0;jumpStyle=arc;jumpSize=36;" parent="1" edge="1">
          <mxGeometry width="50" height="50" relative="1" as="geometry">
            <mxPoint x="1620" y="1830" as="sourcePoint" />
            <mxPoint x="1450" y="1440" as="targetPoint" />
            <Array as="points">
              <mxPoint x="1620" y="1440" />
            </Array>
          </mxGeometry>
        </mxCell>
        <mxCell id="vNjgoKGC3daDF4KBpXQI-294" value="" style="endArrow=classic;html=1;rounded=0;" parent="1" edge="1">
          <mxGeometry width="50" height="50" relative="1" as="geometry">
            <mxPoint x="1620" y="1650" as="sourcePoint" />
            <mxPoint x="1450" y="1650" as="targetPoint" />
          </mxGeometry>
        </mxCell>
        <mxCell id="vNjgoKGC3daDF4KBpXQI-295" value="" style="endArrow=classic;html=1;rounded=0;entryX=0.124;entryY=0.923;entryDx=0;entryDy=0;entryPerimeter=0;jumpStyle=arc;jumpSize=36;" parent="1" target="vNjgoKGC3daDF4KBpXQI-176" edge="1">
          <mxGeometry width="50" height="50" relative="1" as="geometry">
            <mxPoint x="1850" y="1700" as="sourcePoint" />
            <mxPoint x="1460" y="1700" as="targetPoint" />
          </mxGeometry>
        </mxCell>
        <mxCell id="vNjgoKGC3daDF4KBpXQI-296" value="" style="endArrow=classic;html=1;rounded=0;jumpStyle=arc;jumpSize=36;" parent="1" edge="1">
          <mxGeometry width="50" height="50" relative="1" as="geometry">
            <mxPoint x="1780" y="1700" as="sourcePoint" />
            <mxPoint x="1450" y="1490" as="targetPoint" />
            <Array as="points">
              <mxPoint x="1780" y="1610" />
              <mxPoint x="1490" y="1610" />
              <mxPoint x="1490" y="1490" />
            </Array>
          </mxGeometry>
        </mxCell>
        <mxCell id="vNjgoKGC3daDF4KBpXQI-297" value="" style="endArrow=classic;html=1;rounded=0;" parent="1" edge="1">
          <mxGeometry width="50" height="50" relative="1" as="geometry">
            <mxPoint x="760" y="1530" as="sourcePoint" />
            <mxPoint x="760" y="1400" as="targetPoint" />
          </mxGeometry>
        </mxCell>
        <mxCell id="vNjgoKGC3daDF4KBpXQI-298" value="" style="endArrow=classic;html=1;rounded=0;entryX=0.323;entryY=-0.012;entryDx=0;entryDy=0;entryPerimeter=0;jumpStyle=arc;jumpSize=36;" parent="1" target="vNjgoKGC3daDF4KBpXQI-65" edge="1">
          <mxGeometry width="50" height="50" relative="1" as="geometry">
            <mxPoint x="2850" y="480" as="sourcePoint" />
            <mxPoint x="1430" y="650" as="targetPoint" />
            <Array as="points">
              <mxPoint x="2940" y="480" />
              <mxPoint x="2940" y="160" />
              <mxPoint x="1640" y="160" />
              <mxPoint x="1640" y="640" />
              <mxPoint x="1311" y="640" />
            </Array>
          </mxGeometry>
        </mxCell>
        <mxCell id="vNjgoKGC3daDF4KBpXQI-299" value="&lt;font style=&quot;font-size: 24px;&quot;&gt;WRMEM, MEMREADMEM&lt;br&gt;&lt;/font&gt;" style="text;strokeColor=none;align=center;fillColor=none;html=1;verticalAlign=middle;whiteSpace=wrap;rounded=0;" parent="1" vertex="1">
          <mxGeometry x="2030" y="130" width="520" height="30" as="geometry" />
        </mxCell>
        <mxCell id="vNjgoKGC3daDF4KBpXQI-300" value="" style="endArrow=classic;html=1;rounded=0;entryX=0.11;entryY=0.11;entryDx=0;entryDy=0;entryPerimeter=0;jumpStyle=arc;jumpSize=36;" parent="1" target="vNjgoKGC3daDF4KBpXQI-65" edge="1">
          <mxGeometry width="50" height="50" relative="1" as="geometry">
            <mxPoint x="1810" y="410" as="sourcePoint" />
            <mxPoint x="1680" y="610" as="targetPoint" />
            <Array as="points">
              <mxPoint x="1850" y="410" />
              <mxPoint x="1850" y="360" />
              <mxPoint x="1680" y="360" />
              <mxPoint x="1680" y="680" />
              <mxPoint x="1361" y="680" />
            </Array>
          </mxGeometry>
        </mxCell>
        <mxCell id="vNjgoKGC3daDF4KBpXQI-301" value="&lt;font style=&quot;font-size: 24px;&quot;&gt;WREX, MEMREADEX&lt;br&gt;&lt;/font&gt;" style="text;strokeColor=none;align=center;fillColor=none;html=1;verticalAlign=middle;whiteSpace=wrap;rounded=0;" parent="1" vertex="1">
          <mxGeometry x="1740" y="310" width="60" height="30" as="geometry" />
        </mxCell>
        <mxCell id="vNjgoKGC3daDF4KBpXQI-302" value="" style="endArrow=classic;html=1;rounded=0;entryX=0.234;entryY=0.995;entryDx=0;entryDy=0;entryPerimeter=0;" parent="1" target="vNjgoKGC3daDF4KBpXQI-219" edge="1">
          <mxGeometry width="50" height="50" relative="1" as="geometry">
            <mxPoint x="3640" y="560" as="sourcePoint" />
            <mxPoint x="2280" y="370" as="targetPoint" />
            <Array as="points">
              <mxPoint x="3720" y="560" />
              <mxPoint x="3720" y="290" />
              <mxPoint x="2720" y="290" />
              <mxPoint x="2720" y="380" />
              <mxPoint x="2142" y="380" />
            </Array>
          </mxGeometry>
        </mxCell>
        <mxCell id="vNjgoKGC3daDF4KBpXQI-303" value="&lt;font style=&quot;font-size: 24px;&quot;&gt;REGWRITEWB, WRWB&lt;br&gt;&lt;/font&gt;" style="text;strokeColor=none;align=center;fillColor=none;html=1;verticalAlign=middle;whiteSpace=wrap;rounded=0;" parent="1" vertex="1">
          <mxGeometry x="3160" y="250" width="280" height="30" as="geometry" />
        </mxCell>
        <mxCell id="vNjgoKGC3daDF4KBpXQI-305" value="" style="endArrow=classic;html=1;rounded=0;entryX=0.5;entryY=1;entryDx=0;entryDy=0;entryPerimeter=0;" parent="1" target="vNjgoKGC3daDF4KBpXQI-219" edge="1">
          <mxGeometry width="50" height="50" relative="1" as="geometry">
            <mxPoint x="2850" y="460" as="sourcePoint" />
            <mxPoint x="2070" y="360" as="targetPoint" />
            <Array as="points">
              <mxPoint x="2880" y="460" />
              <mxPoint x="2880" y="360" />
              <mxPoint x="2640" y="360" />
              <mxPoint x="2079" y="360" />
            </Array>
          </mxGeometry>
        </mxCell>
        <mxCell id="vNjgoKGC3daDF4KBpXQI-306" value="&lt;font style=&quot;font-size: 24px;&quot;&gt;REGWRITEMEM, WRMEM&lt;br&gt;&lt;/font&gt;" style="text;strokeColor=none;align=center;fillColor=none;html=1;verticalAlign=middle;whiteSpace=wrap;rounded=0;" parent="1" vertex="1">
          <mxGeometry x="2730" y="325" width="360" height="30" as="geometry" />
        </mxCell>
        <mxCell id="jXCe7JVUxdTadm_lUsol-1" value="" style="endArrow=classic;html=1;rounded=0;entryX=1;entryY=0.5;entryDx=0;entryDy=0;entryPerimeter=0;exitX=1.013;exitY=0.271;exitDx=0;exitDy=0;exitPerimeter=0;" edge="1" parent="1" source="vNjgoKGC3daDF4KBpXQI-271" target="vNjgoKGC3daDF4KBpXQI-277">
          <mxGeometry width="50" height="50" relative="1" as="geometry">
            <mxPoint x="3600" y="750" as="sourcePoint" />
            <mxPoint x="3650" y="700" as="targetPoint" />
            <Array as="points">
              <mxPoint x="3840" y="720" />
            </Array>
          </mxGeometry>
        </mxCell>
        <mxCell id="jXCe7JVUxdTadm_lUsol-2" value="&lt;font style=&quot;font-size: 24px;&quot;&gt;MEMTOREGWB&lt;/font&gt;" style="text;strokeColor=none;align=center;fillColor=none;html=1;verticalAlign=middle;whiteSpace=wrap;rounded=0;" vertex="1" parent="1">
          <mxGeometry x="3720" y="690" width="60" height="30" as="geometry" />
        </mxCell>
      </root>
    </mxGraphModel>
  </diagram>
</mxfile>
